<?xml version="1.0" standalone="no"?>
<!DOCTYPE svg PUBLIC "-//W3C//DTD SVG 1.1//EN" "http://www.w3.org/Graphics/SVG/1.1/DTD/svg11.dtd" >
<svg>
<metadata>
Created by FontForge 20090622 at Tue May  2 10:48:18 2017
 By ffonts
Copyright \(c\) 2017 by Nasir Udin. All rights reserved.
</metadata>
<defs>
<font id="ShabrinaFree" horiz-adv-x="274" >
  <font-face 
    font-family="Shabrina Free"
    font-weight="400"
    font-stretch="normal"
    units-per-em="1000"
    panose-1="0 0 0 0 0 0 0 0 0 0"
    ascent="750"
    descent="-250"
    x-height="500"
    cap-height="698"
    bbox="-240.143 -250.126 854.409 790.533"
    underline-thickness="50"
    underline-position="-50"
    unicode-range="U+000D-U+2019"
  />
<missing-glyph 
 />
    <glyph glyph-name=".notdef" 
 />
    <glyph glyph-name="NULL" horiz-adv-x="0" 
 />
    <glyph glyph-name="NULL" horiz-adv-x="0" 
 />
    <glyph glyph-name="CR" unicode="&#xd;" 
 />
    <glyph glyph-name="space" unicode=" " 
 />
    <glyph glyph-name="three" unicode="3" horiz-adv-x="389" 
d="M59 607c21 5 127 12 223 25c57 5 90 -88 67 -119c-13 -16 -36 -41 -59 -61c-13 -12 -26 -24 -41 -36c212 -60 136 -413 -77 -413c-144 0 -168 71 -168 121c0 82 80 46 80 29c0 -18 46 -50 88 -50c100 0 135 256 -30 228c-44 -5 -59 44 -67 50c-6 6 71 89 108 124
s-67 10 -101 7c-35 -5 -68 84 -23 95z" />
    <glyph glyph-name="four" unicode="4" horiz-adv-x="432" 
d="M384 625c47 0 52 -46 44 -62c-92 -196 -103 -503 -88 -514c16 -16 -19 -64 -79 -42c-58 18 -70 95 -59 212c-170 -24 -192 -4 -195 22c-8 33 60 384 151 384c47 0 51 -47 44 -62c-48 -88 -68 -227 -68 -250c0 -25 38 -24 78 -16c27 167 98 328 172 328z" />
    <glyph glyph-name="five" unicode="5" horiz-adv-x="408" 
d="M383 633c93 8 3 -73 -47 -91c-39 -16 -90 -12 -149 -12l-7 -31c-5 -20 -13 -48 -28 -79c180 48 217 -100 217 -193c0 -65 -48 -225 -203 -225c-157 0 -196 139 -164 195c33 57 142 44 98 15c-67 -48 -16 -116 21 -116c13 0 83 -7 132 88c48 95 6 169 -58 169
c-59 0 -93 -44 -138 -41c-47 3 -34 61 -26 79c35 75 54 164 65 209c3 19 17 38 49 33c91 -13 188 -5 238 0z" />
    <glyph glyph-name="six" unicode="6" horiz-adv-x="385" 
d="M146 372c75 40 222 -16 222 -189c0 -152 -119 -183 -192 -183c-56 0 -171 38 -171 243c0 206 152 393 207 393c54 0 84 -39 79 -63c-6 -20 -95 -65 -145 -201zM257 153c18 42 2 120 -29 138c-34 21 -73 -9 -86 -49c-14 -35 -4 -85 21 -110c35 -35 75 -24 94 21z" />
    <glyph glyph-name="seven" unicode="7" horiz-adv-x="399" 
d="M412 615c8 -23 42 -84 18 -92c-24 -12 -167 -226 -187 -335c-19 -107 3 -150 6 -158c3 -11 -4 -29 -44 -29s-93 32 -93 156c0 62 51 158 101 238c29 47 63 95 101 145c-111 -5 -239 -55 -254 -55c-31 0 -70 73 -70 101s106 54 226 54c121 0 187 -2 196 -25z" />
    <glyph glyph-name="eight" unicode="8" horiz-adv-x="393" 
d="M293 347c59 -35 97 -109 89 -175c-16 -108 -94 -172 -201 -172c-105 0 -203 68 -169 184c24 85 81 134 140 161c-48 24 -81 77 -63 143c28 101 96 152 165 152c80 0 138 -87 127 -163c-11 -69 -40 -109 -88 -130zM181 456c-4 -47 24 -75 61 -60c29 12 55 52 59 89
c3 43 -14 84 -49 81c-30 -6 -68 -63 -71 -110zM275 175c3 44 -15 86 -57 83c-37 -5 -84 -63 -87 -113c-3 -48 28 -77 75 -61c34 11 64 53 69 91z" />
    <glyph glyph-name="nine" unicode="9" horiz-adv-x="346" 
d="M331 481c12 -64 -8 -335 -137 -452c-25 -20 -54 -31 -77 -28c-33 5 -47 37 -47 47c-1 5 0 5 5 10c43 29 77 73 102 124c-5 -3 -11 -3 -16 -4c-86 -13 -202 91 -138 279c64 187 185 193 216 167c19 -15 27 -37 30 -60c32 0 53 -36 62 -83zM102 416
c-24 -107 41 -200 115 -126c16 64 24 127 25 178c-5 -5 -12 -5 -15 3c-5 11 5 31 -7 60c-19 44 -86 14 -118 -115z" />
    <glyph glyph-name="a" unicode="a" horiz-adv-x="417" 
d="M384 325c3 -37 -50 -34 -53 -21c0 13 23 91 -65 91c-49 0 -144 -62 -171 -183c-16 -70 16 -124 52 -124c61 0 135 191 146 206c12 15 45 -17 53 -25c9 -9 -2 -47 -13 -106c-11 -57 37 -89 61 -89s-18 -74 -72 -74c-52 0 -67 40 -83 80c-12 -15 -25 -28 -39 -40
c-24 -20 -56 -40 -91 -40c-69 0 -139 69 -113 212c37 194 182 283 270 283c143 0 114 -152 118 -170z" />
    <glyph glyph-name="b" unicode="b" horiz-adv-x="394" 
d="M232 492c64 0 141 -45 141 -138c3 -124 -44 -258 -140 -325c-39 -29 -70 -36 -93 -21c-11 -9 -25 -17 -42 -17c-23 0 -38 9 -57 40c-93 157 -3 595 29 668c26 55 64 56 78 53c38 -5 37 -25 26 -49c-39 -99 -67 -206 -70 -335c18 63 60 124 128 124zM185 86
c53 0 130 316 22 316c-45 0 -77 -85 -101 -141c4 -48 9 -85 16 -114c15 21 25 12 28 -27c1 -13 14 -34 35 -34z" />
    <glyph glyph-name="c" unicode="c" horiz-adv-x="338" 
d="M304 196c-13 -34 -25 -192 -190 -192c-94 0 -205 134 -101 329c103 193 237 178 266 144c46 -51 11 -132 -11 -162c-9 -11 -26 -18 -30 -3c-4 12 12 34 4 66c-13 53 -95 33 -149 -104c-40 -98 20 -203 81 -171c91 45 96 140 116 140c11 0 15 -16 14 -47z" />
    <glyph glyph-name="d" unicode="d" horiz-adv-x="467" 
d="M454 56c4 -5 5 -4 2 -11c-6 -14 -32 -49 -69 -49c-24 0 -50 15 -67 46c-11 22 -18 46 -23 71c-27 -54 -56 -113 -156 -113c-94 0 -205 136 -96 336c66 127 153 162 210 162c32 0 65 -16 72 -31c5 77 64 232 109 232c39 0 59 -25 47 -49c-55 -118 -138 -453 -29 -594z
M189 93c57 0 81 77 100 109c-1 35 3 71 7 107c-11 -9 -25 -12 -28 0c-3 11 15 41 10 73c-8 55 -88 25 -152 -111c-45 -99 -6 -178 63 -178z" />
    <glyph glyph-name="e" unicode="e" horiz-adv-x="336" 
d="M312 231c7 11 17 10 12 -23c-13 -80 -98 -210 -203 -210c-64 0 -144 51 -144 147c0 130 61 257 167 319c93 53 155 47 176 -24c19 -70 -91 -254 -231 -254c0 -20 6 -91 70 -91c78 0 144 124 153 136zM240 412c-28 0 -124 -56 -151 -161c139 27 190 161 151 161z" />
    <glyph glyph-name="V" unicode="V" horiz-adv-x="391" 
d="M2 447c-8 92 8 260 92 260c31 0 60 -33 52 -48c-51 -122 8 -390 44 -494c46 0 88 193 112 326c24 123 70 270 126 270c23 0 28 -13 28 -24c-1 -7 -8 -9 -12 -12c-18 -15 -38 -85 -86 -406c-12 -91 -48 -317 -188 -317c-102 0 -156 278 -168 445z" />
    <glyph glyph-name="f" unicode="f" horiz-adv-x="305" 
d="M153 275c18 -19 33 -41 45 -67c21 -44 40 -109 33 -193c-11 -134 -40 -255 -126 -255s-124 192 -95 457c32 267 125 422 157 457c53 58 74 -5 55 -34c-29 -47 -73 -146 -104 -282c32 0 156 0 256 53c11 8 37 -16 15 -49c-23 -36 -149 -84 -236 -87zM142 -77
c25 53 30 285 -33 321c-16 -177 2 -394 33 -321z" />
    <glyph glyph-name="at" unicode="@" horiz-adv-x="739" 
d="M380 491c106 0 87 -114 87 -128c5 -29 -39 -24 -39 -16c0 12 19 69 -48 69c-37 0 -109 -47 -128 -138c-12 -52 8 -93 39 -93c45 0 100 143 108 154c11 13 35 -12 40 -17c7 -8 -2 -36 -10 -80c-5 -21 8 -54 49 -54c55 0 135 49 135 134s-44 227 -230 227
c-180 0 -303 -146 -303 -283c0 -139 67 -252 223 -252c154 0 166 63 179 53c11 -8 -2 -123 -179 -123c-174 0 -304 108 -304 322c0 213 175 350 384 350c216 0 287 -166 287 -294c0 -131 -130 -205 -226 -205c-31 0 -67 14 -86 63c-9 -11 -18 -21 -29 -30
c-19 -15 -41 -30 -68 -30c-51 0 -104 50 -85 158c29 146 137 213 204 213z" />
    <glyph glyph-name="g" unicode="g" horiz-adv-x="416" 
d="M291 499c144 0 111 -155 111 -173c3 -37 -54 -35 -54 -22c0 12 29 94 -62 94c-49 0 -151 -63 -183 -187c-19 -72 6 -126 46 -126c64 0 145 195 160 210c13 15 44 -18 52 -26c9 -9 19 -26 8 -84c-7 -53 -14 -115 -25 -188c-19 -131 -71 -242 -195 -247
c-90 -3 -137 48 -137 93s39 63 63 63c21 0 5 -53 51 -53c61 3 100 64 121 152c8 35 18 72 26 109c-10 -8 -20 -20 -31 -37c-13 -15 -27 -29 -42 -41c-25 -20 -59 -40 -94 -40c-72 0 -139 68 -104 215c48 197 202 288 289 288z" />
    <glyph glyph-name="h" unicode="h" horiz-adv-x="426" 
d="M396 72c7 -1 12 -1 12 -8c0 -8 -23 -64 -84 -64c-110 0 -115 155 -86 243c13 39 77 123 29 112c-40 -8 -91 -136 -118 -227c12 -41 24 -55 31 -66c16 -24 -37 -58 -61 -58c-23 -1 -50 9 -69 38c-91 155 -3 582 29 653c24 53 75 55 88 52c38 -5 35 -25 25 -48
c-47 -117 -78 -250 -67 -413c3 -21 2 -41 5 -58c34 74 147 258 203 258c44 0 73 -52 62 -79c-10 -25 -39 -120 -50 -208c-13 -86 44 -127 51 -127z" />
    <glyph glyph-name="i" unicode="i" horiz-adv-x="170" 
d="M166 683c33 0 10 -140 -119 -153c8 103 95 153 119 153zM128 462c-41 -69 -49 -352 7 -412c10 -12 -3 -50 -54 -50s-71 59 -78 155c-8 146 6 345 88 345c37 0 45 -28 37 -38z" />
    <glyph glyph-name="j" unicode="j" horiz-adv-x="183" 
d="M135 681c33 0 20 -140 -109 -153c0 103 85 153 109 153zM152 427c3 -145 -9 -341 -30 -445c-21 -103 -41 -232 -200 -232c-160 0 -181 185 -150 247c32 62 104 41 88 7c-16 -35 -11 -143 74 -130c129 20 119 460 111 504c-8 28 -52 118 17 118c58 0 90 -52 90 -69z" />
    <glyph glyph-name="k" unicode="k" horiz-adv-x="402" 
d="M388 136c21 0 -10 -120 -53 -120c-71 0 -171 150 -187 188c-15 33 -33 66 9 90c78 46 144 124 149 163c4 38 -135 -113 -153 -131c-3 3 -5 6 -6 10c-1 7 1 19 16 38c29 38 134 173 191 108c35 -41 -16 -170 -144 -223c32 -69 150 -123 178 -123zM115 282
c11 -170 44 -207 55 -223c16 -24 -37 -59 -61 -59c-23 0 -49 10 -68 38c-89 158 -5 578 28 652c24 53 75 56 88 53c37 -7 35 -25 26 -48c-47 -117 -79 -250 -68 -413z" />
    <glyph glyph-name="l" unicode="l" horiz-adv-x="206" 
d="M39 39c-76 157 21 585 61 657c29 55 73 56 86 53c38 -5 24 -29 13 -53c-57 -118 -123 -478 -43 -630c16 -30 -20 -66 -51 -66c-23 0 -49 8 -66 39z" />
    <glyph glyph-name="exclam" unicode="!" horiz-adv-x="277" 
d="M158 753c86 0 65 -69 65 -169c0 -98 -52 -353 -52 -374s-94 -24 -94 29c0 51 27 371 27 403s2 111 54 111zM80 126c28 6 89 13 89 -21c0 -26 18 -74 -24 -95c-33 -16 -92 -16 -108 0c-21 21 8 108 43 116z" />
    <glyph glyph-name="quotedbl" unicode="&#x22;" horiz-adv-x="419" 
d="M158 709c7 0 17 -11 20 -22c0 -11 33 -226 -48 -226c-72 0 -70 121 -78 165c-8 43 6 63 15 71c19 17 80 12 91 12zM356 687c0 -11 33 -226 -48 -226c-72 0 -70 121 -78 165c-8 43 6 63 15 71c19 17 80 12 91 12c7 0 17 -11 20 -22z" />
    <glyph glyph-name="m" unicode="m" horiz-adv-x="618" 
d="M580 74c9 -11 18 -9 18 -16c0 -8 -22 -56 -88 -56c-74 0 -60 110 -42 194c11 45 34 167 -10 159c-45 -16 -73 -185 -111 -239c-25 -35 -61 -54 -97 -42c-47 16 -22 168 4 226c14 30 17 74 -9 69c-47 -12 -98 -341 -149 -358c-36 -21 -72 -12 -87 31c0 6 -12 100 -7 226
c8 192 64 254 112 254s-16 -108 -5 -322c50 167 124 297 195 297c43 0 72 -52 61 -76c-5 -15 -37 -136 -40 -166c-5 -37 1 -23 14 -10c12 12 91 238 177 238c72 0 77 -47 69 -119c-4 -37 -49 -242 -5 -290z" />
    <glyph glyph-name="n" unicode="n" horiz-adv-x="439" 
d="M404 74c8 -1 12 -1 12 -8c0 -8 -10 -66 -73 -66c-97 0 -103 126 -74 217c13 40 64 159 15 148c-50 -11 -119 -208 -135 -288s-58 -79 -93 -79c-32 0 -45 30 -47 42c-3 5 -12 98 -7 223c8 195 63 256 112 256c52 0 -23 -123 -2 -363c37 200 134 344 241 344
c45 0 74 -54 63 -81s-39 -123 -52 -214c-13 -90 34 -129 40 -131z" />
    <glyph glyph-name="o" unicode="o" horiz-adv-x="397" 
d="M299 508c92 -22 111 -211 60 -334c-63 -149 -145 -199 -246 -180c-101 16 -168 175 -84 330c85 160 201 200 270 184zM299 248c24 75 16 183 -29 183c-55 0 -138 -94 -168 -178c-29 -83 2 -160 60 -160c60 0 109 64 137 155z" />
    <glyph glyph-name="p" unicode="p" horiz-adv-x="420" 
d="M247 498c63 0 142 -44 142 -139c0 -127 -44 -258 -141 -328c-98 -69 -152 8 -120 107c1 1 1 1 1 2c17 35 32 27 35 -17c0 -13 14 -34 34 -34c56 0 131 319 23 319c-51 0 -102 -92 -110 -161c-8 -64 -28 -312 48 -436c16 -24 -31 -61 -56 -61c-24 0 -39 15 -58 46
c-92 160 -19 594 16 668c26 55 71 57 85 54c37 -7 36 -25 27 -48c19 17 43 28 74 28z" />
    <glyph glyph-name="q" unicode="q" horiz-adv-x="415" 
d="M331 481c51 -65 -4 -185 -31 -214c-40 -46 -70 -31 -57 -13c15 19 41 67 41 127s-131 6 -176 -127c-45 -131 36 -221 94 -171c59 48 121 171 145 171c23 0 22 -63 5 -167c-24 -134 16 -230 74 -230c59 0 7 -104 -60 -104c-79 0 -151 179 -79 342c-12 -18 -27 -34 -44 -48
c-31 -24 -75 -48 -136 -48c-77 0 -212 115 -84 319c128 206 276 203 308 163z" />
    <glyph glyph-name="r" unicode="r" horiz-adv-x="429" 
d="M401 74c7 -3 18 -10 18 -17c0 -8 -12 -57 -76 -57c-96 0 -126 149 -81 253c16 37 76 146 35 154c-48 13 -108 -66 -163 -77c0 -82 -24 -198 -56 -243c-35 -54 -87 -3 -87 7c0 11 60 91 87 225c3 12 7 22 12 29c-37 24 -93 28 -61 62c27 27 42 156 122 156
c45 0 74 -52 63 -80c-7 -15 -17 -28 -22 -59c-5 -39 8 -23 21 -10s62 83 134 83c46 0 65 -54 54 -81s-41 -125 -54 -215s42 -128 54 -130z" />
    <glyph glyph-name="s" unicode="s" horiz-adv-x="310" 
d="M214 303c-17 0 -27 12 -15 23c12 9 12 64 -30 64c-24 0 -65 -24 -65 -79c0 -35 26 -56 77 -88c52 -35 83 -61 83 -105c0 -75 -63 -118 -137 -118c-75 0 -114 46 -125 89c-4 20 1 35 13 35c15 0 27 -18 54 -33c23 -13 42 -17 58 -17c29 0 44 27 44 44c0 20 -23 32 -56 47
c-51 21 -101 69 -101 146c0 98 75 187 155 187c71 0 119 -36 119 -96s-42 -99 -74 -99z" />
    <glyph glyph-name="ampersand" unicode="&#x26;" horiz-adv-x="750" 
d="M674 590c146 0 61 -214 -41 -214c-59 0 -33 67 -73 67c-28 0 -58 -68 -85 -137c45 -44 72 -93 68 -173c-5 -123 -132 -165 -172 -165c-58 0 70 24 75 116c1 27 -7 53 -23 76c-35 -75 -110 -160 -222 -160c-128 0 -204 105 -199 204c3 80 73 171 156 202
c-28 36 -40 73 -37 126c5 109 99 168 193 168s127 -61 124 -117s-46 -88 -87 -88c-22 0 10 20 15 85c1 31 -21 58 -52 58c-45 0 -76 -23 -79 -68c-3 -51 32 -92 114 -161l83 -66c64 153 153 247 242 247zM246 135c53 0 99 17 132 73c-60 57 -129 104 -190 164
c-27 -19 -65 -66 -68 -121c-5 -100 66 -116 126 -116z" />
    <glyph glyph-name="dollar" unicode="$" horiz-adv-x="390" 
d="M230 293c68 -43 101 -87 101 -143c0 -88 -59 -130 -141 -138c-3 -43 -10 -97 -44 -97c-37 0 -36 41 -25 101c-67 16 -106 64 -117 108c-7 27 1 44 16 45c19 0 52 -80 147 -80c51 0 83 14 83 61c0 48 -57 70 -103 97c-61 35 -128 98 -128 197c0 109 73 180 161 196
c3 43 8 102 44 102c37 0 35 -42 25 -102c72 -11 117 -54 117 -119c0 -76 -53 -126 -94 -126c-21 0 -34 17 -19 29c14 11 35 108 -38 108c-30 0 -108 -5 -108 -105c0 -44 60 -93 123 -134z" />
    <glyph glyph-name="percent" unicode="%" horiz-adv-x="698" 
d="M240 481c-33 -79 -78 -118 -135 -118c-8 0 -17 -1 -25 2c-27 5 -51 24 -66 55c-23 47 -19 106 9 159c59 112 135 120 155 120c7 0 14 -1 20 -3c18 -4 32 -17 42 -38c23 -44 23 -123 0 -177zM119 452c29 0 56 31 73 84c11 33 9 75 -2 91c-3 3 -6 5 -9 5
c-26 0 -74 -50 -90 -97c-9 -27 -8 -53 4 -70c4 -7 12 -13 24 -13zM618 301c23 -44 23 -123 0 -177c-34 -79 -79 -119 -135 -119c-9 0 -17 1 -25 3c-28 4 -51 23 -66 54c-23 47 -19 107 9 160c59 112 135 120 155 120c7 0 14 -1 20 -3c18 -4 32 -17 42 -38zM570 178
c11 33 8 76 -2 91c-3 4 -6 6 -9 6c-26 0 -74 -50 -90 -97c-9 -27 -8 -53 4 -70c4 -7 12 -14 24 -14c29 0 56 32 73 84zM548 580c-19 -8 -314 -447 -339 -581c-5 -27 -14 -46 -47 -27c-13 7 -30 38 -22 102c12 85 168 376 315 542c22 28 54 68 74 55c31 -24 30 -68 28 -83
c-1 -7 -2 -5 -9 -8z" />
    <glyph glyph-name="numbersign" unicode="#" horiz-adv-x="463" 
d="M412 194c31 0 11 -94 -55 -99c-1 -35 -2 -62 -1 -69c5 -25 -98 -66 -90 0l3 68c-31 0 -65 0 -97 -1c-1 -33 -1 -53 0 -60c3 -25 -99 -65 -91 0l3 59c-19 0 -32 -1 -39 -2c-26 -5 -71 93 -6 90h48c0 32 1 65 2 97c-24 0 -41 0 -48 -3c-26 -5 -71 94 -6 91c12 -1 31 0 55 0
c1 51 2 89 2 98c3 31 96 5 96 -62c-1 -8 -1 -19 -1 -32l88 4c1 43 1 75 2 83c3 31 98 5 95 -62v-16c19 1 30 1 37 1c28 0 14 -81 -42 -97c-1 -28 -2 -59 -5 -90c25 1 43 2 50 2zM177 183c31 3 64 2 95 5c0 31 1 60 1 91c-28 0 -60 -1 -91 -1c-3 -31 -4 -63 -5 -95z" />
    <glyph glyph-name="question" unicode="?" horiz-adv-x="389" 
d="M206 750c109 0 181 -83 181 -184c0 -204 -138 -186 -186 -298c29 -62 -129 -81 -129 -48c0 38 -11 36 42 105c82 104 156 124 156 195c0 137 -140 98 -144 58c-6 -41 67 -67 1 -94c-57 -22 -125 41 -125 116c0 40 38 150 204 150zM111 127c28 6 88 13 88 -21
c0 -25 18 -73 -24 -94c-32 -16 -91 -16 -107 0c-21 21 8 107 43 115z" />
    <glyph glyph-name="bracketleft" unicode="[" horiz-adv-x="330" 
d="M85 627c108 3 159 3 159 -35c0 -24 -70 -23 -101 -23c-32 0 -38 -23 -38 -43s-8 -440 -8 -474c0 -36 85 -20 127 -20s5 -45 -3 -77c-8 -31 -136 -19 -166 -19c-32 0 -62 -4 -54 42s11 541 15 587c4 47 18 59 69 62z" />
    <glyph glyph-name="bracketright" unicode="]" horiz-adv-x="255" 
d="M162 -63c-108 -4 -159 -4 -159 35c0 24 69 23 100 23c33 0 39 23 39 43s7 439 7 474c0 36 -85 20 -127 20c-43 0 -4 45 4 77c8 31 134 19 166 19c30 0 62 4 54 -42s-12 -542 -16 -587c-5 -46 -16 -59 -68 -62z" />
    <glyph glyph-name="backslash" unicode="\" horiz-adv-x="411" 
d="M9 573c-11 32 -12 77 8 85c35 11 68 -10 79 -21c5 -4 4 -4 3 -11c-4 -18 189 -476 282 -565c19 -17 29 -34 -3 -51c-11 -7 -60 -23 -104 16c-62 53 -209 346 -265 547z" />
    <glyph glyph-name="less" unicode="&#x3c;" horiz-adv-x="404" 
d="M327 142h-6c-42 8 -292 122 -308 149c-11 19 -15 58 -7 82c3 8 7 17 15 21c23 12 336 136 364 144h3c4 0 7 -7 8 -11c8 -29 0 -82 -12 -91c-16 -13 -136 -49 -232 -81l-27 -9l-14 -4l13 -5l22 -8c73 -30 226 -86 229 -112c3 -17 -4 -44 -19 -61c-8 -9 -18 -14 -29 -14z
" />
    <glyph glyph-name="greater" unicode="&#x3e;" horiz-adv-x="402" 
d="M13 142h-2c-4 0 -7 7 -8 11c-8 28 0 83 11 91c19 11 136 49 232 81l28 9l14 4l-14 5l-21 8c-75 27 -227 88 -230 112c-3 17 5 44 20 61c8 9 18 14 29 14h6c41 -8 291 -121 307 -149c12 -19 15 -58 8 -82c-3 -8 -7 -17 -15 -21c-23 -11 -338 -136 -365 -144z" />
    <glyph glyph-name="parenright" unicode=")" horiz-adv-x="368" 
d="M92 0c-15 23 37 58 85 127c66 98 28 272 -4 353c-32 80 -99 122 -45 166c53 45 123 -51 152 -147c32 -105 58 -295 -19 -417c-77 -121 -124 -153 -169 -82z" />
    <glyph glyph-name="parenleft" unicode="(" horiz-adv-x="337" 
d="M262 601c16 -23 -37 -57 -85 -128c-66 -95 -29 -274 3 -353c32 -81 100 -120 46 -166c-53 -45 -123 52 -152 148c-32 104 -58 294 19 416c76 121 124 152 169 83z" />
    <glyph glyph-name="slash" unicode="/" horiz-adv-x="458" 
d="M334 656c22 24 56 53 76 39c30 -22 29 -64 26 -77c-1 -7 -1 -5 -8 -8c-18 -9 -294 -419 -319 -546c-5 -25 -11 -44 -44 -25c-13 5 -52 36 -44 95c12 79 174 367 313 522z" />
    <glyph glyph-name="plus" unicode="+" horiz-adv-x="437" 
d="M391 373c33 0 13 -101 -60 -104c-19 -1 -43 -2 -71 -2c-5 -56 -10 -103 -7 -118c3 -28 -107 -64 -96 5c3 21 6 64 9 113c-49 -1 -91 -1 -104 -4c-27 -5 -75 98 -6 95c23 -1 66 0 114 3l7 139c3 33 101 2 98 -70c-1 -17 -2 -39 -5 -63c59 3 106 6 121 6z" />
    <glyph glyph-name="comma" unicode="," horiz-adv-x="167" 
d="M109 136c5 0 16 -9 17 -18c0 -11 6 -132 -29 -192c-35 -59 -65 -64 -82 -53c-19 11 -18 25 -7 22c22 0 27 18 40 48c-37 19 -21 87 -29 123c-7 36 5 53 13 60c16 16 68 10 77 10z" />
    <glyph glyph-name="hyphen" unicode="-" horiz-adv-x="527" 
d="M134 312c65 -3 232 10 265 10s13 -101 -60 -104c-72 -3 -172 4 -199 -1s-75 98 -6 95z" />
    <glyph glyph-name="semicolon" unicode=";" horiz-adv-x="164" 
d="M118 173c5 0 16 -9 17 -18c0 -10 6 -133 -29 -192s-64 -64 -83 -53s-17 25 -6 22c22 0 27 18 40 48c-37 19 -24 87 -29 123c-7 36 5 53 13 60c16 16 68 10 77 10zM49 274c-28 0 -21 55 -13 75c8 28 83 49 100 30c11 -13 10 -64 -6 -91c-22 -35 -59 -14 -81 -14z" />
    <glyph glyph-name="colon" unicode=":" horiz-adv-x="184" 
d="M36 125c8 27 75 45 90 27c11 -14 9 -57 -5 -82c-19 -32 -55 -13 -73 -13c-25 0 -17 49 -12 68zM59 327c-24 0 -16 49 -11 69c9 26 74 43 90 27c11 -14 9 -57 -5 -82c-18 -31 -55 -14 -74 -14z" />
    <glyph glyph-name="period" unicode="." horiz-adv-x="173" 
d="M47 119c26 6 82 11 82 -19c0 -24 17 -67 -22 -88c-29 -16 -86 -14 -100 0c-20 20 10 100 40 107z" />
    <glyph glyph-name="asterisk" unicode="*" horiz-adv-x="288" 
d="M196 438c27 -24 39 -45 16 -72c-20 -24 -55 -1 -83 38c-19 -35 -37 -54 -69 -38c-27 13 -15 48 12 83c-35 5 -54 15 -51 50c3 31 42 31 85 16c3 44 12 72 51 68c27 -3 32 -34 21 -73c31 11 54 11 67 -20c11 -24 -14 -41 -49 -52z" />
    <glyph glyph-name="quoteleft" unicode="&#x2018;" horiz-adv-x="146" 
d="M16 545c-4 0 -13 7 -13 14c0 9 -7 103 20 151c26 48 92 57 107 50c15 -9 13 -19 5 -18c-28 5 -63 -22 -73 -45c28 -15 18 -68 24 -96c5 -29 -3 -41 -10 -48c-14 -11 -51 -8 -60 -8z" />
    <glyph glyph-name="quoteright" unicode="&#x2019;" horiz-adv-x="174" 
d="M156 774c4 0 13 -7 13 -14c0 -9 7 -103 -20 -151c-26 -48 -92 -57 -107 -50c-15 9 -13 19 -5 18c28 -5 63 22 73 45c-28 15 -19 67 -24 96s3 41 10 48c12 12 52 8 60 8z" />
    <glyph glyph-name="underscore" unicode="_" horiz-adv-x="562" 
d="M46 -32c68 -4 438 15 472 15c33 0 13 -105 -62 -108c-75 -4 -376 1 -404 -7c-29 -5 -78 103 -6 100z" />
    <glyph glyph-name="t" unicode="t" horiz-adv-x="262" 
d="M370 615c19 8 56 -46 -181 -78c-40 -149 -63 -368 22 -479c18 -24 -44 -58 -66 -58c-23 1 -49 19 -68 50c-66 125 -30 347 7 477c-51 -5 -81 -10 -100 -13c-47 -8 -64 1 -51 27c8 16 50 46 173 51c10 20 20 38 31 55c19 28 42 56 67 56c60 0 14 -78 3 -107
c80 3 149 14 163 19z" />
    <glyph glyph-name="u" unicode="u" horiz-adv-x="418" 
d="M11 292c5 95 -10 136 -10 143c0 8 -4 65 59 65c67 0 77 -83 66 -183c-8 -72 -34 -194 14 -183c50 11 112 186 128 264c16 80 58 101 92 101c32 0 50 -30 53 -42c3 -10 -22 -48 -49 -192c-24 -120 -4 -229 17 -265c3 -3 -6 -19 -31 -32c-11 -5 -39 -11 -64 19
c-59 73 -22 253 -17 286c-38 -198 -114 -272 -171 -272c-46 0 -92 48 -95 80c-3 28 3 122 8 211z" />
    <glyph glyph-name="y" unicode="y" horiz-adv-x="417" 
d="M415 461c2 -5 1 -9 -3 -10c-37 -19 -44 -147 -95 -461c-19 -121 -74 -240 -177 -240c-88 0 -138 53 -138 97c0 46 37 62 62 62c20 0 7 -55 51 -55c63 0 99 60 118 148c32 144 33 242 38 274c-37 -200 -114 -273 -173 -273c-45 0 -79 48 -82 80c-3 27 4 122 9 212
c3 97 -24 135 -24 143s-4 66 59 66c68 0 78 -83 67 -184c-8 -72 -34 -195 14 -184c49 11 113 187 129 266c16 80 58 101 92 101c32 0 50 -31 53 -42z" />
    <glyph glyph-name="w" unicode="w" horiz-adv-x="570" 
d="M586 528c-50 -37 -58 -152 -109 -424c-15 -76 -64 -106 -120 -106c-44 0 -93 32 -79 78c3 15 28 139 25 170c-3 39 -6 20 -16 10c-9 -14 -64 -243 -151 -243c-72 0 -102 49 -95 121c3 33 4 146 9 232c5 87 -27 71 -35 71c-8 1 -11 1 -14 9c0 7 7 54 69 54
c109 0 100 -133 89 -210c-5 -38 -22 -154 22 -146c43 13 70 189 97 243c19 37 51 56 91 43c50 -16 33 -172 17 -230c-8 -31 -23 -76 4 -71c46 8 64 203 72 264c11 75 42 158 80 166c27 5 57 -20 44 -31z" />
    <glyph glyph-name="x" unicode="x" horiz-adv-x="412" 
d="M346 502c92 0 94 -145 54 -145c-24 0 -28 47 -93 9c-24 -13 -62 -58 -103 -110c61 -83 127 -158 161 -158c28 0 61 -96 -49 -96c-50 0 -117 78 -176 166c-48 -67 -86 -128 -97 -144c-42 -63 -122 8 -55 67c13 11 56 75 106 146c-54 84 -94 158 -109 164
c-33 14 -31 59 5 82c34 20 34 29 64 -7l103 -153c69 93 145 179 189 179z" />
    <glyph glyph-name="v" unicode="v" horiz-adv-x="363" 
d="M26 501c56 0 104 -46 128 -197c11 -65 10 -125 47 -101c29 19 52 113 95 289c8 37 35 75 59 24c32 -71 -34 -446 -170 -514c-40 -21 -104 26 -104 53c0 28 -20 125 -33 213c-36 222 -73 177 -77 188c-4 19 8 45 55 45z" />
    <glyph glyph-name="z" unicode="z" horiz-adv-x="419" 
d="M19 456c-8 25 -7 44 20 44c41 0 114 -26 252 11c29 8 50 25 69 6c18 -18 59 -104 59 -114c0 -23 -15 -49 -114 -116c-76 -51 -111 -91 -127 -118c-9 -16 -14 -30 -13 -41c74 -69 153 -72 182 -54c51 30 10 -121 -96 -134c-107 -13 -200 180 -232 186c-32 8 -40 49 -10 76
c24 21 32 36 56 20c11 -7 17 -8 21 -7l4 3c62 86 167 126 204 201c-73 -35 -148 -35 -188 -24c-33 8 -71 14 -87 61z" />
    <glyph glyph-name="asciicircum" unicode="^" horiz-adv-x="397" 
d="M251 692c9 -20 128 -288 137 -313c8 -27 -92 -19 -105 -3c-12 17 -53 135 -85 224c-32 -74 -90 -215 -118 -218c-29 -3 -81 14 -76 52c9 39 118 249 143 266c24 16 94 15 104 -8z" />
    <glyph glyph-name="E" unicode="E" horiz-adv-x="568" 
d="M398 528c5 13 5 24 2 34c-7 17 -25 35 -81 35c-42 0 -126 -29 -126 -116c0 -77 69 -113 132 -105c76 11 153 9 140 -41s-64 -43 -175 -61c-115 -21 -170 -99 -162 -176c7 -65 61 -108 145 -108c155 0 242 158 258 174c17 17 50 8 29 -70c-24 -80 -159 -213 -314 -213
c-96 0 -246 57 -246 194c0 72 36 179 163 253c-68 64 -92 116 -87 169c0 119 123 202 242 202c143 0 200 -53 200 -136s-41 -81 -74 -81c-34 0 -60 32 -46 46z" />
    <glyph glyph-name="B" unicode="B" horiz-adv-x="603" 
d="M458 376c183 12 195 -217 20 -368c-175 -147 -297 -87 -305 -38c-2 14 -2 27 0 39c-38 -24 -95 16 -104 39c-8 22 11 26 31 44c98 90 98 357 78 414c-7 20 3 34 22 34s48 -29 67 -62c11 -23 12 -76 9 -135c1 1 4 3 8 4c57 27 131 81 131 142c0 67 -39 132 -150 124
c-87 -5 -161 -85 -161 -153c0 -46 27 -66 27 -76c-3 -13 -9 -34 -36 -34c-41 0 -95 12 -95 110c0 135 106 279 265 279c155 0 260 -98 252 -250c-3 -57 -43 -102 -59 -113zM433 94c74 82 83 221 -53 226c-43 -23 -85 -32 -109 -37c-5 -36 -26 -134 -42 -180
c13 10 25 16 34 18c52 11 22 -19 -16 -68c-35 -45 82 -70 186 41z" />
    <glyph glyph-name="A" unicode="A" horiz-adv-x="586" 
d="M574 -40c32 -3 20 -117 -78 -109c-83 5 -97 128 -97 199l-10 179c-65 -21 -144 -40 -219 -51c-55 -97 -118 -182 -172 -177c-86 5 -55 94 -28 91c19 -3 52 40 79 77c-43 1 -79 6 -103 21c-47 26 -19 114 4 134s33 -2 62 -15c31 -15 68 -22 109 -22
c56 105 151 289 180 369c30 83 159 42 175 -45c3 -14 7 -112 15 -227l27 18c20 17 40 10 47 -10c8 -21 -11 -70 -46 -102l-22 -15c5 -100 11 -190 16 -214c9 -63 29 -98 61 -101zM230 297c55 9 111 25 158 42l-4 174c-5 88 -56 24 -72 -13c-11 -24 -42 -115 -82 -203z" />
    <glyph glyph-name="C" unicode="C" horiz-adv-x="556" 
d="M430 233c32 64 64 45 78 34c13 -13 -31 -267 -250 -267c-143 0 -277 114 -253 309c11 103 67 202 109 255c-35 23 -64 40 -83 40c-66 0 -64 -40 -98 -40c-13 0 -20 8 -20 17c0 27 23 62 118 62c39 0 78 -18 119 -42c72 66 162 91 233 91c114 0 173 -103 173 -165
c-3 -48 -40 -103 -140 -103c-73 0 -148 38 -213 81c-31 -44 -74 -141 -77 -228c-5 -88 48 -172 151 -172c94 0 130 79 153 128zM383 604c-39 0 -95 -12 -146 -59c59 -37 118 -71 179 -71c88 0 74 55 45 91c-17 20 -43 39 -78 39z" />
    <glyph glyph-name="D" unicode="D" horiz-adv-x="567" 
d="M405 700c102 0 248 -216 96 -524c-152 -304 -321 -288 -361 -228c-64 95 -12 226 34 258c63 45 42 -11 18 -102c-8 -32 -7 -87 28 -87c63 0 158 120 203 251c64 185 -8 368 -112 296c-55 -37 -108 -119 -139 -182c-3 -19 -4 -38 -7 -55c-13 -98 -57 -219 -95 -246
c-38 -26 -99 14 -107 39c-7 22 9 26 31 45c101 93 101 366 81 426c-8 19 3 33 22 33s49 -28 68 -63c5 -8 6 -21 9 -38c61 87 138 177 231 177z" />
    <glyph glyph-name="F" unicode="F" horiz-adv-x="440" 
d="M638 748c7 -20 -12 -67 -42 -102c-29 -34 -165 -76 -258 -97c-29 -6 -58 -11 -88 -15c19 -8 39 -31 54 -58c4 -7 5 -17 8 -29c65 7 109 18 120 26c13 11 17 0 2 -16c-13 -16 -27 -77 -96 -93c-7 -1 -16 -2 -24 -5c-1 -39 -5 -78 -10 -111c-13 -96 -55 -212 -93 -239
c-37 -26 -96 15 -104 37c-8 23 11 25 30 44c56 51 79 158 87 250c-31 -7 -55 -11 -67 -18c-24 -12 -45 1 -30 32c8 18 33 68 98 84c-1 31 -5 54 -9 67c-4 11 -3 20 4 27c-83 -8 -162 0 -193 20c-45 32 -24 115 -2 134c23 20 33 -1 64 -15c144 -72 446 40 502 88
c19 16 40 9 47 -11z" />
    <glyph glyph-name="G" unicode="G" horiz-adv-x="528" 
d="M460 355c37 0 47 -31 48 -64c-11 -68 -22 -144 -35 -233c-24 -155 -96 -305 -226 -305c-113 0 -176 65 -176 124s47 78 78 78c27 0 8 -70 66 -70c75 0 121 69 146 172c-32 -19 -70 -28 -115 -28c-147 0 -285 116 -258 313c15 100 48 171 92 227c-36 24 -65 41 -84 41
c-67 0 -66 -41 -100 -41c-13 0 -21 7 -21 18c0 24 25 63 121 63c39 0 77 -19 120 -43c75 68 165 92 237 92c116 0 175 -73 175 -168c0 -48 -41 -104 -142 -104c-73 0 -148 39 -216 82c-32 -45 -55 -109 -59 -200c-5 -91 51 -174 154 -174c63 0 100 34 125 73
c7 39 9 70 12 101c11 28 27 46 58 46zM353 610c-39 0 -97 -13 -148 -60c60 -39 120 -72 181 -72c92 0 73 55 47 92c-19 21 -44 40 -80 40z" />
    <glyph glyph-name="H" unicode="H" horiz-adv-x="605" 
d="M570 689c40 -5 39 -28 28 -53c-39 -96 -67 -202 -75 -326c15 5 25 -2 26 -17c3 -11 -10 -31 -27 -48c0 -21 -1 -41 2 -62c11 -187 47 -227 60 -246c4 -7 6 -5 3 -12c-6 -14 -30 -52 -71 -52c-25 0 -40 10 -61 42c-37 65 -47 173 -42 288c-39 -5 -79 -8 -130 -9
c-24 -106 -57 -247 -198 -247c-160 0 -190 186 -158 249s105 40 89 6s-18 -150 69 -150c51 0 82 65 103 150c-55 8 -101 21 -117 40c-28 28 4 85 23 96s24 -5 43 -20c17 -15 39 -24 66 -31c19 145 14 305 6 318h-1c-31 0 -60 -28 -68 -51c46 -17 -33 -142 -60 -56
c-27 72 60 200 139 200c59 0 91 -52 91 -69c3 -110 -5 -247 -16 -354c43 -1 85 3 124 8c13 156 48 308 69 348c26 58 67 61 83 58z" />
    <glyph glyph-name="I" unicode="I" horiz-adv-x="378" 
d="M377 629c3 -145 -9 -344 -30 -448s-61 -234 -195 -234c-160 0 -190 186 -158 249s105 40 89 6s-18 -150 69 -150c145 0 138 529 123 553c-31 0 -60 -28 -68 -51c46 -17 -33 -142 -60 -56c-27 72 60 200 139 200c59 0 91 -52 91 -69z" />
    <glyph glyph-name="J" unicode="J" horiz-adv-x="425" 
d="M404 533c5 -166 -1 -782 -265 -782c-185 0 -210 214 -174 286c37 72 118 48 102 7c-15 -38 -14 -166 86 -150c147 21 151 585 135 612c-35 0 -71 -34 -79 -59c52 -16 -33 -164 -69 -64c-30 84 71 229 160 229c67 0 104 -59 104 -79z" />
    <glyph glyph-name="M" unicode="M" horiz-adv-x="788" 
d="M787 48c0 -11 -6 -70 -84 -70c-135 0 -143 205 -103 344c14 46 60 197 2 187c-55 -16 -148 -265 -188 -334c-28 -47 -73 -70 -122 -54c-61 20 -13 217 15 293c14 38 40 97 6 89c-60 -12 -118 -297 -138 -375c-25 -95 -69 -128 -110 -128s-59 37 -64 53c-3 7 -1 5 4 12
c13 19 45 62 64 250c16 151 -23 299 -54 344c-3 3 -14 17 16 33c13 8 48 13 82 -24c82 -90 56 -318 52 -358c24 247 139 359 210 359c57 0 98 -67 87 -99c-7 -17 -83 -238 -83 -275c-3 -48 6 -29 19 -13c16 16 142 368 254 368c92 0 107 -80 89 -170
c-7 -26 -91 -375 31 -422c9 -1 15 -1 15 -10z" />
    <glyph glyph-name="O" unicode="O" horiz-adv-x="547" 
d="M426 710c123 -32 155 -289 83 -461c-87 -207 -200 -274 -341 -249c-139 24 -232 240 -115 456c117 218 277 278 373 254zM418 336c40 106 44 252 -22 268c-79 19 -208 -121 -251 -241c-45 -120 13 -237 95 -234c72 3 141 108 178 207z" />
    <glyph glyph-name="N" unicode="N" horiz-adv-x="554" 
d="M544 48c0 -11 4 -70 -74 -70c-137 0 -123 237 -103 344c3 17 10 49 17 82c6 45 -5 97 -55 81c-48 -16 -106 -177 -147 -269c4 -36 -5 -221 -109 -221c-40 0 -66 38 -72 52c-3 7 -1 6 4 13c13 19 45 62 64 250c16 152 -24 297 -55 344c-3 3 -12 16 17 32
c13 8 47 14 82 -23c68 -76 63 -250 55 -327l1 1c13 17 119 308 228 308c92 0 120 -62 103 -153c-40 -201 -61 -400 29 -434c9 -1 15 -1 15 -10z" />
    <glyph glyph-name="K" unicode="K" horiz-adv-x="458" 
d="M549 -23c63 25 -10 -135 -127 -131c-137 4 -192 268 -249 292c-11 -5 -24 -10 -39 -14c16 -90 36 -113 45 -127c4 -7 6 -5 3 -12c-5 -13 -28 -48 -65 -48c-23 0 -50 10 -69 39c-91 155 -6 592 29 663c24 53 76 56 89 53c37 -7 35 -26 26 -49c-46 -113 -89 -313 -67 -434
c89 101 251 313 251 337c-3 21 107 21 112 -49c4 -52 -153 -234 -233 -302c69 -73 165 -257 294 -218z" />
    <glyph glyph-name="L" unicode="L" horiz-adv-x="377" 
d="M564 -106c33 -44 -12 -117 -40 -128c-26 -13 -31 11 -55 35c-117 113 -437 100 -506 72c-24 -9 -41 4 -42 25c0 23 31 60 72 84c12 8 36 12 65 15c-73 174 7 571 39 642c24 53 76 56 90 53c38 -5 35 -27 25 -49c-47 -119 -79 -254 -68 -419c11 -166 41 -207 54 -225
c25 -1 48 -2 71 -5c116 -11 260 -54 295 -100z" />
    <glyph glyph-name="R" unicode="R" horiz-adv-x="532" 
d="M608 -22c65 16 1 -125 -117 -121c-133 4 -204 253 -256 277c-27 -11 -48 -17 -61 -20c-19 -63 -46 -117 -70 -134c-38 -27 -97 16 -105 38s11 26 31 44c99 91 98 359 79 417c-7 19 3 33 22 33s48 -29 67 -62c16 -34 11 -149 0 -230c-3 -12 -4 -24 -7 -36c1 0 2 0 3 1
c64 29 205 131 205 240c0 73 -84 165 -204 157c-104 0 -161 -82 -161 -183c0 -50 39 -78 39 -89c-1 -15 -10 -38 -39 -38c-45 0 -104 28 -104 137c0 108 75 290 289 290c85 0 278 -59 278 -266c0 -116 -85 -201 -170 -252c15 -17 31 -38 46 -57c8 -11 16 -22 25 -33
c70 -110 110 -142 210 -113z" />
    <glyph glyph-name="P" unicode="P" horiz-adv-x="519" 
d="M257 289c-6 0 -10 0 -13 1c-5 -60 -3 -120 5 -163c7 -32 18 -68 31 -79c13 -10 -15 -53 -63 -42s-75 68 -79 164c-5 143 45 341 112 330c36 -5 49 -33 41 -43c-20 -27 -34 -72 -42 -124c10 9 22 16 36 23c58 26 144 82 144 142c0 68 -76 133 -187 125
c-87 -5 -138 -99 -138 -167c0 -45 27 -54 27 -63c-1 -13 -9 -35 -36 -35c-41 0 -95 26 -95 125s69 267 265 267c77 0 254 -41 254 -213c0 -197 -222 -244 -262 -248z" />
    <glyph glyph-name="S" unicode="S" horiz-adv-x="442" 
d="M321 406c-27 0 -40 19 -23 34c16 14 27 136 -60 136c-37 0 -114 -14 -114 -132c0 -53 72 -111 147 -159c80 -52 119 -103 119 -170c0 -113 -82 -165 -193 -165s-181 71 -194 134c-7 31 1 53 18 53c21 0 62 -95 176 -95c60 0 98 17 98 73c0 55 -68 84 -123 115
c-72 40 -151 117 -151 233c0 146 109 236 232 236c107 0 179 -56 179 -144s-63 -149 -111 -149z" />
    <glyph glyph-name="Q" unicode="Q" horiz-adv-x="615" 
d="M595 34c60 24 -10 -131 -125 -127c-58 3 -108 60 -142 121c-49 -29 -104 -34 -164 -25c-136 24 -225 234 -113 445c115 213 271 268 364 247c121 -30 150 -283 80 -449c-23 -56 -49 -102 -77 -139c64 -72 146 -86 177 -73zM142 357c-43 -117 0 -236 92 -236
c8 0 16 2 25 5l-5 4c-33 11 -34 58 1 82c31 18 39 34 63 12c13 -12 25 -16 32 -17c22 33 54 95 70 134c40 116 32 244 -33 260c-78 19 -194 -107 -245 -244z" />
    <glyph glyph-name="T" unicode="T" horiz-adv-x="472" 
d="M650 770c7 -20 -11 -70 -43 -104c-24 -29 -119 -60 -204 -84c-47 -119 -77 -254 -66 -417c11 -174 45 -216 57 -231c4 -7 6 -5 3 -12c-5 -13 -29 -49 -66 -49c-24 0 -52 9 -71 40c-83 143 -21 516 18 642c-103 -13 -213 -11 -253 15c-49 32 -22 116 -1 137
c22 19 34 1 64 -16c146 -75 458 43 513 90c20 17 41 10 49 -11z" />
    <glyph glyph-name="U" unicode="U" horiz-adv-x="517" 
d="M511 655c-39 -43 -76 -151 -83 -308c-7 -195 10 -294 33 -294c30 0 21 -69 -59 -69c-45 0 -69 63 -82 144c-21 -44 -69 -126 -160 -126c-204 0 -163 308 -143 429c30 207 20 206 10 209c-9 0 2 58 79 53c106 -8 53 -170 16 -347c-10 -50 -21 -220 50 -220
c67 0 88 21 142 99c0 118 22 390 99 452c41 33 73 21 86 13c28 -22 16 -31 12 -35z" />
    <glyph glyph-name="W" unicode="W" horiz-adv-x="774" 
d="M83 180c0 55 19 350 -52 421c-15 16 -29 14 -30 25c0 10 -17 79 78 79c108 0 110 -158 110 -282c0 -68 -7 -270 57 -258c63 20 87 298 131 375c29 52 55 73 90 57c56 -27 73 -183 65 -327c-3 -46 -11 -129 27 -121c67 17 148 513 160 537c13 43 54 52 86 52
c47 0 60 -51 41 -70c-17 -17 -153 -681 -315 -681c-64 0 -125 45 -117 112c4 20 24 284 24 328c0 54 -11 36 -22 14c-8 -20 -72 -432 -209 -432c-103 0 -124 66 -124 171z" />
    <glyph glyph-name="Y" unicode="Y" horiz-adv-x="473" 
d="M520 660c3 -7 3 -10 -4 -13c-48 -24 -51 -188 -115 -590c-24 -156 -91 -307 -222 -307c-112 0 -177 67 -177 125c0 59 28 80 59 80c27 0 29 -82 86 -82c78 0 127 88 151 200c40 184 40 309 48 350c-48 -253 -146 -350 -220 -350c-59 0 -103 60 -106 103
c-3 36 6 155 11 271c5 123 -30 176 -30 184c0 11 -5 83 76 83c89 0 96 -105 85 -234c-8 -93 -46 -249 18 -236c63 13 123 155 163 340c23 100 66 130 109 130s63 -41 68 -54z" />
    <glyph glyph-name="X" unicode="X" horiz-adv-x="625" 
d="M749 751c45 0 98 -86 57 -86c-76 0 -273 -193 -436 -377c93 -168 200 -320 320 -320c29 0 8 -129 -91 -129c-100 0 -177 115 -289 309c-9 15 -18 30 -25 44c-72 -84 -129 -155 -156 -194c-37 -50 -17 -94 -37 -97c-42 -5 -88 38 -91 89c-5 41 97 167 225 308
c-133 243 -168 321 -204 321c-24 0 -12 82 53 82c140 0 162 -225 239 -310c179 184 379 360 435 360z" />
    <glyph glyph-name="Z" unicode="Z" horiz-adv-x="576" 
d="M659 -73c35 -48 10 -139 -31 -139c-31 1 -68 29 -92 54c-117 117 -279 114 -378 106c-8 -11 -26 -21 -58 -21c-28 0 -57 12 -72 49c-23 17 -38 38 -17 50c2 1 6 3 11 4c1 24 6 51 18 86c24 74 121 190 211 285c53 56 111 113 174 171c-137 -8 -295 -67 -314 -67
c-38 0 -52 95 -42 129c11 35 150 67 296 67c145 0 225 -3 225 -31c0 -29 21 -101 -13 -112c-32 -12 -293 -273 -358 -404c-23 -45 -37 -81 -44 -108c63 0 129 -1 176 -8c121 -13 273 -62 308 -111z" />
    <glyph glyph-name="equal" unicode="=" horiz-adv-x="596" 
d="M108 236c69 -4 317 10 352 10c33 0 13 -105 -62 -108c-74 -3 -257 6 -284 -2c-29 -5 -78 103 -6 100zM108 440c69 -4 317 10 352 10c33 0 13 -105 -62 -108c-74 -3 -257 6 -284 -2c-29 -5 -78 103 -6 100z" />
    <glyph glyph-name="two" unicode="2" horiz-adv-x="400" 
d="M114 396c-52 -21 -114 36 -114 104c0 36 36 124 185 124c99 0 163 -63 163 -154c0 -185 -183 -248 -226 -351c59 -11 188 0 239 13c30 11 50 -107 -35 -123c-86 -16 -248 -1 -278 -6c-29 -5 -27 18 -43 50c-16 29 -11 46 32 111c64 96 205 197 205 264
c0 124 -125 88 -129 52c-5 -36 60 -60 1 -84z" />
    <glyph glyph-name="zero" unicode="0" horiz-adv-x="395" 
d="M235 627c104 0 166 -176 153 -331c-16 -186 -103 -294 -212 -294c-108 0 -206 117 -169 317c35 204 152 308 228 308zM293 312c3 99 -2 184 -62 184c-49 0 -116 -123 -121 -234c-3 -112 36 -141 80 -141c60 0 98 100 103 191z" />
    <glyph glyph-name="one" unicode="1" horiz-adv-x="260" 
d="M213 621c39 -15 46 -44 39 -59c-92 -196 -103 -499 -87 -515c13 -13 -20 -64 -80 -42c-59 21 -49 99 -38 221c7 73 21 152 41 224c-7 -3 -13 -4 -18 -5c-40 -13 -59 70 -67 86c-8 19 19 32 67 48c33 11 76 31 107 40c10 6 20 7 30 3c3 0 3 -1 6 -1z" />
    </font>
</defs>
</svg>
